<?xml version="1.0" encoding="UTF-8"?>
<!DOCTYPE svg PUBLIC "-//W3C//DTD SVG 1.1//EN" "http://www.w3.org/Graphics/SVG/1.1/DTD/svg11.dtd">
<!-- Creator: CorelDRAW 2020 (64 Bit) -->
<svg xmlns="http://www.w3.org/2000/svg" xml:space="preserve" width="19.811mm" height="12.829mm" version="1.1" style="shape-rendering:geometricPrecision; text-rendering:geometricPrecision; image-rendering:optimizeQuality; fill-rule:evenodd; clip-rule:evenodd"
viewBox="0 0 1966.94 1273.73"
 xmlns:xlink="http://www.w3.org/1999/xlink"
 xmlns:xodm="http://www.corel.com/coreldraw/odm/2003">
 <defs>
  <style type="text/css">
   <![CDATA[
    .fil0 {fill:black;fill-rule:nonzero}
    .fil1 {fill:gray;fill-rule:nonzero}
   ]]>
  </style>
 </defs>
 <g id="Camada_x0020_1">
  <metadata id="CorelCorpID_0Corel-Layer"/>
  <g id="_2675029424384">
   <path class="fil0" d="M277.21 347.4l1412.51 0c30,0 54.33,-16.72 54.33,-37.35l0 -93.38c0,-20.62 -24.32,-37.35 -54.33,-37.35l-1412.51 0c-30,0 -54.33,16.73 -54.33,37.35l0 93.38c0,20.63 24.32,37.35 54.33,37.35zm0 373.5l1412.51 0c30,0 54.33,-16.72 54.33,-37.35l0 -93.37c0,-20.63 -24.32,-37.35 -54.33,-37.35l-1412.51 0c-30,0 -54.33,16.72 -54.33,37.35l0 93.37c0,20.63 24.32,37.35 54.33,37.35zm0 373.51l1412.51 0c30,0 54.33,-16.73 54.33,-37.35l0 -93.38c0,-20.63 -24.32,-37.35 -54.33,-37.35l-1412.51 0c-30,0 -54.33,16.72 -54.33,37.35l0 93.38c0,20.62 24.32,37.35 54.33,37.35z"/>
   <g>
    <path class="fil1" d="M1828.87 12.81l-1690.79 0 0 -12.81 1690.79 0 0 0 0 12.81zm138.08 125.27l-12.81 0 0 0 -0.16 -6.42 -0.49 -6.33 -0.8 -6.25 -1.11 -6.15 -1.39 -6.05 -1.7 -5.93 -1.98 -5.81 -2.24 -5.68 -2.52 -5.54 -2.78 -5.4 -3.03 -5.25 -3.27 -5.08 -3.49 -4.91 -3.73 -4.74 -3.95 -4.56 -4.15 -4.36 -4.36 -4.15 -4.56 -3.95 -4.74 -3.73 -4.91 -3.49 -5.08 -3.27 -5.25 -3.03 -5.4 -2.78 -5.54 -2.52 -5.68 -2.24 -5.81 -1.98 -5.93 -1.7 -6.05 -1.4 -6.16 -1.1 -6.25 -0.8 -6.33 -0.49 -6.42 -0.17 0 -12.81 7.08 0.17 6.99 0.55 6.89 0.88 6.77 1.22 6.68 1.54 6.54 1.88 6.4 2.17 6.27 2.48 6.12 2.78 5.94 3.06 5.79 3.33 5.6 3.6 5.41 3.85 5.23 4.11 4.99 4.35 4.82 4.57 4.57 4.82 4.35 4.99 4.11 5.23 3.85 5.41 3.6 5.6 3.33 5.79 3.06 5.94 2.78 6.12 2.48 6.27 2.17 6.4 1.88 6.54 1.55 6.68 1.21 6.78 0.88 6.89 0.55 6.99 0.18 7.08 0 0zm-12.81 997.58l0 -997.58 12.81 0 0 997.58 0 0 -12.81 0zm-125.27 138.08l0 -12.81 0 0 6.42 -0.17 6.33 -0.49 6.25 -0.8 6.16 -1.1 6.05 -1.4 5.93 -1.7 5.81 -1.98 5.68 -2.24 5.54 -2.52 5.4 -2.78 5.25 -3.03 5.08 -3.27 4.91 -3.49 4.74 -3.73 4.56 -3.95 4.36 -4.15 4.15 -4.36 3.95 -4.56 3.73 -4.74 3.49 -4.91 3.27 -5.08 3.03 -5.25 2.78 -5.4 2.52 -5.54 2.24 -5.68 1.98 -5.81 1.7 -5.93 1.39 -6.05 1.11 -6.15 0.8 -6.25 0.49 -6.33 0.16 -6.42 12.81 0 -0.18 7.08 -0.55 6.99 -0.88 6.89 -1.21 6.78 -1.55 6.68 -1.88 6.54 -2.17 6.4 -2.48 6.27 -2.78 6.12 -3.06 5.94 -3.33 5.79 -3.6 5.6 -3.85 5.41 -4.11 5.23 -4.35 4.99 -4.57 4.82 -4.82 4.57 -4.99 4.35 -5.23 4.11 -5.41 3.85 -5.6 3.6 -5.79 3.33 -5.94 3.06 -6.12 2.78 -6.27 2.48 -6.4 2.17 -6.54 1.88 -6.68 1.54 -6.77 1.22 -6.89 0.88 -6.99 0.55 -7.08 0.17 0 0zm-1690.79 -12.81l1690.79 0 0 12.81 -1690.79 0 0 0 0 -12.81zm-138.08 -125.27l12.81 0 0 0 0.16 6.42 0.49 6.33 0.8 6.25 1.11 6.15 1.39 6.05 1.7 5.93 1.98 5.81 2.24 5.68 2.52 5.54 2.78 5.4 3.03 5.25 3.27 5.08 3.49 4.91 3.73 4.74 3.95 4.56 4.15 4.36 4.36 4.15 4.56 3.95 4.74 3.73 4.91 3.49 5.08 3.27 5.25 3.03 5.4 2.78 5.54 2.52 5.68 2.24 5.81 1.98 5.93 1.7 6.05 1.4 6.16 1.1 6.25 0.8 6.33 0.49 6.42 0.17 0 12.81 -7.08 -0.17 -6.99 -0.55 -6.89 -0.88 -6.77 -1.22 -6.68 -1.54 -6.54 -1.88 -6.4 -2.17 -6.27 -2.48 -6.12 -2.78 -5.94 -3.06 -5.79 -3.33 -5.6 -3.6 -5.41 -3.85 -5.23 -4.11 -4.99 -4.35 -4.82 -4.57 -4.57 -4.82 -4.35 -4.99 -4.11 -5.23 -3.85 -5.41 -3.6 -5.6 -3.33 -5.79 -3.06 -5.94 -2.78 -6.12 -2.48 -6.27 -2.17 -6.4 -1.88 -6.54 -1.55 -6.68 -1.21 -6.78 -0.88 -6.89 -0.55 -6.99 -0.18 -7.08 0 0zm12.81 -997.58l0 997.58 -12.81 0 0 -997.58 0 0 12.81 0zm125.27 -138.08l0 12.81 0 0 -6.42 0.17 -6.33 0.49 -6.25 0.8 -6.16 1.1 -6.05 1.4 -5.93 1.7 -5.81 1.98 -5.68 2.24 -5.54 2.52 -5.4 2.78 -5.25 3.03 -5.08 3.27 -4.91 3.49 -4.74 3.73 -4.56 3.95 -4.36 4.15 -4.15 4.36 -3.95 4.56 -3.73 4.74 -3.49 4.91 -3.27 5.08 -3.03 5.25 -2.78 5.4 -2.52 5.54 -2.24 5.68 -1.98 5.81 -1.7 5.93 -1.39 6.05 -1.11 6.15 -0.8 6.25 -0.49 6.33 -0.16 6.42 -12.81 0 0.18 -7.08 0.55 -6.99 0.88 -6.89 1.21 -6.78 1.55 -6.68 1.88 -6.54 2.17 -6.4 2.48 -6.27 2.78 -6.12 3.06 -5.94 3.33 -5.79 3.6 -5.6 3.85 -5.41 4.11 -5.23 4.35 -4.99 4.57 -4.82 4.82 -4.57 4.99 -4.35 5.23 -4.11 5.41 -3.85 5.6 -3.6 5.79 -3.33 5.94 -3.06 6.12 -2.78 6.27 -2.48 6.4 -2.17 6.54 -1.88 6.68 -1.54 6.77 -1.22 6.89 -0.88 6.99 -0.55 7.08 -0.17 0 0z"/>
   </g>
  </g>
 </g>
</svg>
