<?xml version="1.0" encoding="UTF-8"?>
<!DOCTYPE svg PUBLIC "-//W3C//DTD SVG 1.1//EN" "http://www.w3.org/Graphics/SVG/1.1/DTD/svg11.dtd">
<!-- Creator: CorelDRAW 2020 (64 Bit) -->
<svg xmlns="http://www.w3.org/2000/svg" xml:space="preserve" width="25.4mm" height="10.7609mm" version="1.1" style="shape-rendering:geometricPrecision; text-rendering:geometricPrecision; image-rendering:optimizeQuality; fill-rule:evenodd; clip-rule:evenodd"
viewBox="0 0 815.73 345.59"
 xmlns:xlink="http://www.w3.org/1999/xlink"
 xmlns:xodm="http://www.corel.com/coreldraw/odm/2003">
 <defs>
  <style type="text/css">
   <![CDATA[
    .fil7 {fill:none}
    .fil3 {fill:black}
    .fil4 {fill:black;fill-rule:nonzero}
    .fil1 {fill:black;fill-rule:nonzero}
    .fil5 {fill:black;fill-rule:nonzero}
    .fil2 {fill:red;fill-rule:nonzero}
    .fil6 {fill:white;fill-rule:nonzero}
    .fil0 {fill:white;fill-rule:nonzero}
   ]]>
  </style>
 </defs>
 <g id="Camada_x0020_1">
  <metadata id="CorelCorpID_0Corel-Layer"/>
  <g id="_1979055192688">
   <g>
    <path class="fil0" d="M135.87 245.23c-14.17,0 -27.05,-2.34 -38.66,-7.03 -11.67,-4.71 -21.98,-11.77 -30.91,-21.17 -8.93,-9.4 -15.63,-20.35 -20.08,-32.81 -4.41,-12.36 -6.62,-26.21 -6.62,-41.51 0,-15.33 2.18,-29.2 6.54,-41.57 4.4,-12.5 11.01,-23.44 19.82,-32.81 8.83,-9.41 19.05,-16.47 30.65,-21.17 11.52,-4.68 24.37,-7.01 38.51,-7.01 11.78,0 22.66,1.44 32.61,4.32 9.99,2.89 18.99,7.24 26.98,13.05 8.11,5.87 14.46,12.81 19.06,20.79 4.59,7.98 7.37,16.93 8.35,26.83 0.29,2.99 -1.9,5.67 -4.89,5.95l-26.29 0.04c-2.92,0 -5.31,-2.3 -5.46,-5.19 -0.45,-5.22 -1.82,-9.83 -4.11,-13.8 -2.32,-4.03 -5.63,-7.53 -9.92,-10.5 -4.45,-3.07 -9.62,-5.4 -15.51,-6.95 -6.04,-1.59 -12.9,-2.39 -20.56,-2.39 -8.99,0 -17.04,1.51 -24.13,4.51 -7.05,2.99 -13.27,7.5 -18.64,13.5 -5.38,6.02 -9.44,13.34 -12.17,21.95 -2.78,8.79 -4.17,18.93 -4.17,30.42 0,11.45 1.41,21.55 4.21,30.29 2.74,8.56 6.85,15.88 12.3,21.93 5.45,6.05 11.72,10.58 18.78,13.58 7.11,3.03 15.13,4.53 24.07,4.53 12.8,0 23.86,-2.07 33.18,-6.2 8.61,-3.82 15.83,-9.46 21.64,-16.9l0 -21.31 -44.07 0c-3.02,0 -5.47,-2.45 -5.47,-5.47l0 -22.38c0,-3.02 2.45,-5.47 5.47,-5.47l73.62 0c3.02,0 5.46,2.45 5.46,5.47l0 68.44 62.38 -162.36c0.83,-2.16 2.89,-3.49 5.08,-3.5l26.76 -0.03c2.38,0 4.41,1.53 5.16,3.66l65.7 161.07 0 -159.27c0,-3.02 2.45,-5.47 5.47,-5.47l37.29 0c2.56,0 4.71,1.76 5.3,4.14l45.55 140.23 45.91 -140.58c0.75,-2.3 2.89,-3.77 5.19,-3.77l37.29 -0.01c1.54,0 2.94,0.64 3.93,1.67 1,-1.03 2.39,-1.67 3.93,-1.67l135.65 0c3.02,0 5.47,2.45 5.47,5.47l0 22.29c0,3.02 -2.45,5.46 -5.47,5.46l-105.31 0 0 46.43 98.14 0c3.02,0 5.47,2.45 5.47,5.46l0 22.3c0,3.02 -2.45,5.47 -5.47,5.47l-98.14 0 0 52.59 109.68 0c3.02,0 5.47,2.45 5.47,5.46l0 22.3c0,3.02 -2.45,5.47 -5.47,5.47l-140.02 0c-1.54,0 -2.94,-0.64 -3.93,-1.67 -1,1.03 -2.39,1.67 -3.93,1.67l-23.56 0c-3.02,0 -5.47,-2.45 -5.47,-5.47l0 -126.26 -42.92 127.99c-0.76,2.28 -2.89,3.72 -5.17,3.72l-22.3 0.02c-2.56,0 -4.71,-1.76 -5.31,-4.14l-42.74 -127.56 0 126.24c0,3.02 -2.45,5.47 -5.47,5.47l-51.41 0c-2.42,0 -4.48,-1.58 -5.2,-3.76l-20.34 -53.37 -71.07 0 -19.41 53.53c-0.8,2.22 -2.89,3.59 -5.13,3.59l-44.59 0.02c-2.59,0 -4.77,-1.81 -5.33,-4.23l-3.57 -10.75c-5.77,5.09 -12.53,9.13 -20.27,12.08 -10.64,4.06 -23.13,6.09 -37.45,6.09zm-34.6 -17.15c10.26,4.14 21.8,6.22 34.6,6.22 13,0 24.19,-1.8 33.57,-5.37 9.14,-3.48 16.58,-8.68 22.31,-15.55 0.63,-0.76 1.47,-1.36 2.48,-1.69 2.85,-0.94 5.93,0.61 6.88,3.46l5.31 15.96 8.15 0 0 -84.86 -62.69 0 0 11.46 44.07 0c3.02,0 5.46,2.45 5.46,5.46l0 28.59c-0.02,1.12 -0.36,2.25 -1.07,3.22 -7.12,9.68 -16.16,16.96 -27.1,21.82 -10.78,4.78 -23.31,7.18 -37.58,7.18 -10.38,0 -19.83,-1.81 -28.34,-5.43 -8.56,-3.64 -16.1,-9.08 -22.62,-16.32 -6.47,-7.18 -11.34,-15.84 -14.57,-25.9 -3.17,-9.89 -4.77,-21.11 -4.77,-33.62 0,-12.6 1.56,-23.84 4.69,-33.71 3.19,-10.05 8.01,-18.69 14.47,-25.92 6.45,-7.21 13.96,-12.65 22.52,-16.27 8.5,-3.6 17.96,-5.41 28.35,-5.41 8.55,0 16.33,0.93 23.34,2.77 7.16,1.89 13.49,4.74 18.95,8.53 5.61,3.9 10,8.58 13.14,14.03 2.36,4.11 4,8.6 4.91,13.49l14.68 0c-1.17,-6 -3.2,-11.49 -6.06,-16.48 -3.8,-6.6 -9.15,-12.4 -16.03,-17.4 -6.94,-5.07 -14.82,-8.88 -23.61,-11.42 -8.87,-2.56 -18.74,-3.84 -29.58,-3.84 -12.74,0 -24.21,2.07 -34.41,6.2 -10.13,4.11 -19.07,10.28 -26.8,18.53 -7.76,8.24 -13.58,17.9 -17.48,28.97 -3.93,11.17 -5.9,23.82 -5.9,37.94 0,14.04 2,26.66 5.98,37.83 3.94,11.05 9.84,20.72 17.68,28.97 7.85,8.26 16.88,14.45 27.07,18.57zm229.97 -73.83l-25.02 -65.93 -23.83 65.93 48.85 0zm-20.04 -83.54l32.91 86.71c0.32,0.7 0.5,1.47 0.5,2.3 0,3.02 -2.45,5.46 -5.46,5.46l-64.53 0c-0.62,-0.01 -1.24,-0.12 -1.86,-0.34 -2.83,-1.02 -4.29,-4.15 -3.27,-6.98l31.44 -86.98c0.51,-1.49 1.65,-2.75 3.24,-3.35 2.81,-1.06 5.96,0.36 7.02,3.18zm60.78 160.39l16.18 0 -72.13 -176.83 -19.36 0 -67.93 176.83 14.54 0 19.27 -53.13c0.64,-2.31 2.76,-4 5.27,-4l78.64 0c2.2,0.01 4.28,1.35 5.1,3.52l20.43 53.61zm182.47 0l12.63 0 0 -176.83 -27.87 0 -49.87 152.72c-0.52,1.6 -1.78,2.94 -3.5,3.5 -2.86,0.93 -5.94,-0.64 -6.87,-3.5l-49.61 -152.72 -27.87 0 0 176.83 12.68 0 0 -154.23c0.02,-2.28 1.45,-4.41 3.74,-5.17 2.86,-0.95 5.94,0.58 6.9,3.44l52.26 155.96 14.46 0 52.16 -155.56c0.59,-2.38 2.75,-4.14 5.31,-4.14 3.02,0 5.46,2.45 5.46,5.47l0 154.23zm31.43 0l129.09 0 0 -11.37 -109.68 0c-3.02,0 -5.46,-2.45 -5.46,-5.47l0 -63.52c0,-3.02 2.45,-5.47 5.46,-5.47l98.14 0 0 -11.37 -98.14 0c-3.02,0 -5.46,-2.45 -5.46,-5.47l0 -57.35c0,-3.02 2.45,-5.47 5.46,-5.47l105.31 0 0 -11.36 -124.72 0 0 176.83z"/>
    <path class="fil1" d="M135.87 248.33c-7.22,0 -14.17,-0.61 -20.83,-1.82 -6.68,-1.21 -13.01,-3.03 -18.98,-5.44 -6.05,-2.44 -11.74,-5.49 -17.08,-9.14 -5.33,-3.65 -10.32,-7.91 -14.93,-12.76 -4.61,-4.86 -8.66,-10.12 -12.12,-15.78 -3.46,-5.66 -6.34,-11.71 -8.63,-18.13 -2.26,-6.33 -3.96,-13.07 -5.1,-20.21 -1.13,-7.12 -1.71,-14.58 -1.71,-22.34 0,-7.77 0.57,-15.22 1.69,-22.36 1.12,-7.15 2.81,-13.9 5.04,-20.24 2.27,-6.45 5.11,-12.51 8.52,-18.15 3.41,-5.65 7.41,-10.91 11.97,-15.75 4.54,-4.85 9.48,-9.11 14.78,-12.77 5.32,-3.67 10.97,-6.72 16.96,-9.15 5.92,-2.4 12.22,-4.21 18.88,-5.42 6.64,-1.21 13.58,-1.82 20.79,-1.82 5.97,0 11.77,0.38 17.4,1.11 5.58,0.74 10.95,1.86 16.07,3.33 5.17,1.5 10.09,3.37 14.73,5.62 4.64,2.25 9.05,4.88 13.2,7.91 4.22,3.04 7.99,6.38 11.3,10 3.32,3.62 6.2,7.55 8.62,11.76 2.42,4.21 4.36,8.65 5.81,13.31 1.45,4.66 2.43,9.59 2.94,14.75 0.22,2.35 -0.51,4.58 -1.89,6.26 -1.39,1.68 -3.43,2.85 -5.78,3.07 -7.26,0.73 -18.84,0.04 -26.58,0.06 -2.28,0.01 -4.36,-0.89 -5.89,-2.35 -1.52,-1.44 -2.5,-3.44 -2.64,-5.66 -0.22,-2.41 -0.63,-4.67 -1.25,-6.75 -0.63,-2.09 -1.45,-4.02 -2.45,-5.78 -1.02,-1.78 -2.29,-3.47 -3.8,-5.06 -1.51,-1.6 -3.25,-3.08 -5.2,-4.43 -2.07,-1.43 -4.32,-2.69 -6.73,-3.77 -2.42,-1.08 -5.03,-1.99 -7.82,-2.73 -2.87,-0.75 -5.96,-1.32 -9.24,-1.71 -3.28,-0.38 -6.8,-0.57 -10.53,-0.57 -4.34,0 -8.41,0.36 -12.2,1.06 -3.81,0.72 -7.39,1.79 -10.73,3.2 -3.28,1.39 -6.39,3.15 -9.33,5.28 -2.95,2.14 -5.69,4.62 -8.21,7.43 -2.53,2.83 -4.76,5.98 -6.68,9.44 -1.91,3.45 -3.53,7.25 -4.84,11.38 -1.34,4.25 -2.36,8.82 -3.02,13.68 -0.67,4.88 -1.01,10.16 -1.01,15.81 0,5.62 0.34,10.86 1.02,15.73 0.67,4.88 1.69,9.43 3.03,13.62 1.3,4.07 2.94,7.85 4.89,11.34 1.94,3.45 4.2,6.61 6.77,9.47 2.59,2.87 5.36,5.38 8.29,7.5 2.96,2.13 6.1,3.91 9.4,5.31 3.35,1.42 6.92,2.5 10.71,3.21 3.79,0.71 7.85,1.07 12.16,1.07 6.24,0 12.02,-0.5 17.33,-1.49 5.31,-0.99 10.18,-2.47 14.61,-4.44 4.06,-1.8 7.8,-4.04 11.22,-6.7 3.13,-2.45 6,-5.26 8.57,-8.44l0 -17.15 -40.97 0c-2.36,0 -4.51,-0.96 -6.05,-2.51 -1.55,-1.56 -2.51,-3.7 -2.51,-6.05l0 -22.38c0,-2.35 0.96,-4.49 2.51,-6.04 1.56,-1.56 3.7,-2.52 6.05,-2.52l73.62 0c2.35,0 4.49,0.96 6.05,2.52 1.55,1.54 2.51,3.68 2.51,6.05l0 51.78 56.39 -146.79c0.62,-1.67 1.74,-3.03 3.12,-3.98 1.41,-0.97 3.11,-1.51 4.85,-1.51l26.76 -0.02c1.82,-0.01 3.53,0.57 4.93,1.57 1.39,0.98 2.49,2.38 3.09,4.01l59.74 146.44 0 -143.48c0,-2.35 0.96,-4.49 2.51,-6.04 1.56,-1.56 3.71,-2.52 6.05,-2.52l37.29 0c1.97,0 3.8,0.68 5.25,1.82 1.46,1.14 2.55,2.75 3.03,4.59l42.58 131.07 42.96 -131.55c0.58,-1.77 1.69,-3.23 3.09,-4.25 1.44,-1.06 3.21,-1.65 5.03,-1.65l37.29 0c1.18,-0.01 2.31,0.23 3.35,0.67l0.59 0.28 0.59 -0.28c1.03,-0.44 2.16,-0.69 3.34,-0.69l135.65 0c2.35,0 4.5,0.96 6.05,2.51 1.55,1.54 2.52,3.68 2.52,6.05l0 22.29c0,2.36 -0.96,4.51 -2.51,6.05 -1.54,1.54 -3.69,2.51 -6.05,2.51l-102.21 0 0 40.23 95.05 0c2.35,0 4.5,0.96 6.05,2.51 1.55,1.54 2.51,3.68 2.51,6.05l0 22.3c0,2.36 -0.96,4.51 -2.51,6.05 -1.54,1.54 -3.69,2.51 -6.05,2.51l-95.05 0 0 46.39 106.58 0c2.35,0 4.5,0.96 6.05,2.51 1.55,1.54 2.52,3.68 2.52,6.05l0 22.3c0,2.36 -0.96,4.51 -2.51,6.05 -1.54,1.54 -3.69,2.51 -6.05,2.51l-140.02 0c-1.18,0 -2.32,-0.25 -3.35,-0.69l-0.59 -0.28 -0.59 0.28c-1.03,0.44 -2.17,0.69 -3.34,0.69l-23.56 0c-2.36,0 -4.51,-0.96 -6.05,-2.51 -1.55,-1.56 -2.51,-3.7 -2.51,-6.05l0 -107.32 -36.89 110.02c-0.59,1.76 -1.71,3.21 -3.1,4.22 -1.44,1.04 -3.19,1.63 -4.99,1.63l-22.3 0c-1.97,0.01 -3.8,-0.67 -5.25,-1.8 -1.48,-1.14 -2.57,-2.77 -3.04,-4.64l-36.65 -109.38 0 107.27c0,2.36 -0.96,4.51 -2.51,6.05 -1.54,1.54 -3.69,2.51 -6.05,2.51l-51.41 0c-1.87,0 -3.61,-0.61 -5.02,-1.63 -1.4,-1.01 -2.49,-2.46 -3.07,-4.13l-19.57 -51.37 -66.78 0 -18.67 51.48c-0.62,1.71 -1.73,3.11 -3.12,4.08 -1.45,1.01 -3.16,1.56 -4.91,1.56l-44.59 0c-2,0.01 -3.85,-0.69 -5.32,-1.85 -1.47,-1.17 -2.55,-2.82 -3,-4.72l-2.09 -6.27c-2.01,1.53 -4.11,2.95 -6.31,4.26 -3.58,2.13 -7.37,3.96 -11.36,5.48 -5.49,2.09 -11.48,3.67 -17.96,4.72 -6.44,1.05 -13.31,1.57 -20.6,1.57zm-19.74 -7.89c6.21,1.13 12.79,1.7 19.74,1.7 7.03,0 13.57,-0.49 19.6,-1.48 6.02,-0.97 11.6,-2.45 16.75,-4.41 3.75,-1.43 7.22,-3.1 10.39,-4.98 3.22,-1.92 6.2,-4.1 8.94,-6.52l3.5 -3.09c1.54,4.65 4.15,11.04 5.13,15.46 0.12,0.52 0.43,1 0.84,1.32 0.4,0.31 0.91,0.5 1.47,0.5l44.59 -0c0.5,-0.01 0.98,-0.16 1.36,-0.43 0.37,-0.27 0.69,-0.66 0.86,-1.13l20.16 -55.57 75.37 0c6.81,17.93 15.28,37.54 21.14,55.51 0.15,0.47 0.47,0.89 0.87,1.18 0.38,0.28 0.87,0.45 1.39,0.45l51.41 0c0.65,0 1.25,-0.27 1.67,-0.69 0.42,-0.42 0.69,-1.02 0.69,-1.67l0 -145.2c16.27,48.54 33.06,97.11 48.84,145.77 0.13,0.52 0.43,0.97 0.84,1.29 0.39,0.31 0.9,0.5 1.46,0.5l22.3 -0c0.51,-0.01 1,-0.17 1.38,-0.45 0.38,-0.28 0.7,-0.67 0.85,-1.15l48.95 -145.97 0 145.21c0,0.66 0.26,1.26 0.68,1.67 0.44,0.42 1.03,0.69 1.69,0.69l23.56 0c0.34,0 0.66,-0.07 0.92,-0.18 0.3,-0.12 0.57,-0.31 0.78,-0.54l2.23 -2.31 2.23 2.31c0.22,0.23 0.49,0.42 0.77,0.54 0.28,0.11 0.59,0.18 0.93,0.18l140.02 0c0.65,0 1.25,-0.27 1.67,-0.69 0.43,-0.42 0.69,-1.02 0.69,-1.67l0 -22.3c0,-0.65 -0.27,-1.25 -0.69,-1.67 -0.42,-0.43 -1.01,-0.7 -1.67,-0.7l-112.78 0 0 -58.78 101.24 0c0.65,0 1.25,-0.27 1.67,-0.69 0.42,-0.42 0.69,-1.02 0.69,-1.67l0 -22.3c0,-0.65 -0.27,-1.25 -0.69,-1.67 -0.42,-0.43 -1.01,-0.7 -1.67,-0.7l-101.24 0 0 -52.62 108.41 0c0.65,0 1.25,-0.27 1.67,-0.69 0.42,-0.42 0.69,-1.02 0.69,-1.67l0 -22.29c0,-0.65 -0.27,-1.25 -0.69,-1.67 -0.42,-0.43 -1.01,-0.69 -1.67,-0.69l-135.65 0c-0.34,0 -0.66,0.07 -0.92,0.18 -0.3,0.12 -0.57,0.31 -0.79,0.54l-2.23 2.31 -2.23 -2.31c-0.22,-0.23 -0.48,-0.42 -0.77,-0.54 -0.28,-0.11 -0.59,-0.18 -0.93,-0.18l-37.29 0c-0.51,0.01 -0.99,0.17 -1.38,0.46 -0.4,0.29 -0.71,0.69 -0.86,1.17l-48.85 149.62c-16.07,-49.45 -33.73,-99.82 -48.55,-149.46 -0.13,-0.52 -0.44,-0.99 -0.84,-1.3 -0.39,-0.3 -0.9,-0.49 -1.46,-0.49l-37.29 0c-0.66,0 -1.26,0.26 -1.67,0.68 -0.43,0.43 -0.69,1.03 -0.69,1.69l0 175.06c-22.23,-54.49 -54.56,-122.08 -71.72,-175.85 -0.16,-0.46 -0.48,-0.86 -0.88,-1.15 -0.37,-0.27 -0.84,-0.42 -1.36,-0.42l-26.76 0.01c-0.48,0 -0.95,0.15 -1.34,0.42 -0.37,0.25 -0.67,0.63 -0.85,1.09l-68.37 177.93 0 -85.11c0,-0.65 -0.27,-1.25 -0.69,-1.67 -0.42,-0.43 -1.01,-0.69 -1.67,-0.69l-73.62 0c-0.66,0 -1.26,0.26 -1.67,0.68 -0.43,0.43 -0.69,1.02 -0.69,1.69l0 22.38c0,0.66 0.26,1.26 0.68,1.67 0.44,0.43 1.03,0.69 1.69,0.69l47.16 0 0 25.46 -0.67 0.85c-3.06,3.92 -6.5,7.37 -10.3,10.34 -3.8,2.96 -7.98,5.46 -12.52,7.48 -4.88,2.16 -10.21,3.79 -15.96,4.86 -5.75,1.08 -11.91,1.62 -18.47,1.62 -4.63,0 -9.06,-0.4 -13.3,-1.19 -4.24,-0.8 -8.24,-2 -11.99,-3.59 -3.75,-1.59 -7.29,-3.59 -10.59,-5.99 -3.32,-2.41 -6.42,-5.21 -9.27,-8.38 -2.88,-3.2 -5.41,-6.73 -7.57,-10.58 -2.14,-3.82 -3.94,-7.98 -5.38,-12.47 -1.45,-4.55 -2.55,-9.44 -3.27,-14.66 -0.73,-5.23 -1.09,-10.76 -1.09,-16.58 0,-5.84 0.36,-11.38 1.08,-16.63 0.72,-5.28 1.8,-10.19 3.24,-14.72 1.42,-4.48 3.2,-8.66 5.34,-12.52 2.13,-3.85 4.63,-7.38 7.47,-10.56 2.85,-3.19 5.92,-5.97 9.18,-8.33 3.27,-2.37 6.8,-4.36 10.56,-5.95 3.75,-1.59 7.76,-2.79 11.99,-3.58 4.25,-0.79 8.7,-1.19 13.34,-1.19 3.92,0 7.67,0.21 11.23,0.62 3.57,0.41 6.95,1.04 10.12,1.88 3.09,0.81 6.01,1.84 8.76,3.07 2.76,1.24 5.34,2.68 7.72,4.33 2.33,1.62 4.4,3.38 6.19,5.26 1.81,1.91 3.36,4 4.65,6.24 1.27,2.22 2.29,4.59 3.03,7.09 0.75,2.51 1.25,5.18 1.49,7.98l0 0.11c0.03,0.63 0.31,1.2 0.74,1.61 0.42,0.4 1,0.64 1.63,0.64l26.09 -0.03c0.59,-0.08 1.11,-0.4 1.48,-0.83 0.38,-0.47 0.59,-1.09 0.53,-1.73 -0.46,-4.72 -1.37,-9.24 -2.69,-13.52 -1.33,-4.28 -3.08,-8.31 -5.25,-12.08 -2.18,-3.78 -4.79,-7.33 -7.82,-10.65 -3.03,-3.3 -6.49,-6.37 -10.38,-9.18 -3.82,-2.8 -7.92,-5.24 -12.26,-7.34 -4.35,-2.11 -8.94,-3.86 -13.75,-5.25 -4.83,-1.39 -9.88,-2.44 -15.16,-3.14 -5.25,-0.69 -10.78,-1.04 -16.6,-1.04 -6.94,0 -13.5,0.56 -19.7,1.69 -6.17,1.12 -12.06,2.82 -17.65,5.09 -5.61,2.27 -10.87,5.11 -15.78,8.49 -4.91,3.39 -9.51,7.37 -13.78,11.93 -4.25,4.52 -7.98,9.43 -11.18,14.71 -3.2,5.29 -5.86,10.97 -7.99,17.01 -2.12,6.03 -3.72,12.42 -4.77,19.12 -1.06,6.72 -1.59,13.86 -1.59,21.42 0,7.53 0.54,14.66 1.6,21.37 1.07,6.7 2.68,13.07 4.83,19.1 2.16,6.04 4.86,11.71 8.08,16.99 3.23,5.28 7.01,10.2 11.32,14.73 4.32,4.54 8.96,8.52 13.93,11.92 4.97,3.4 10.27,6.25 15.89,8.51 5.63,2.27 11.55,3.98 17.77,5.11zm-13.71 -15.22c4.95,2 10.21,3.5 15.75,4.49 5.53,1 11.44,1.49 17.7,1.49 6.38,0 12.27,-0.43 17.65,-1.29 5.35,-0.85 10.3,-2.15 14.81,-3.87 4.33,-1.65 8.26,-3.7 11.77,-6.15 3.5,-2.44 6.6,-5.26 9.27,-8.47 0.49,-0.6 1.09,-1.15 1.76,-1.61 0.65,-0.45 1.37,-0.81 2.13,-1.06 2.23,-0.73 4.55,-0.49 6.5,0.49 1.96,0.99 3.55,2.72 4.28,4.95l4.59 13.83 2.83 0 0 -78.66 -56.49 0 0 5.26 40.97 0c2.35,0 4.49,0.96 6.05,2.51 1.55,1.54 2.51,3.68 2.51,6.05l-0.01 28.64c-0.01,0.89 -0.16,1.79 -0.43,2.62 -0.3,0.85 -0.7,1.65 -1.22,2.36 -3.73,5.06 -7.96,9.5 -12.69,13.31 -4.71,3.79 -9.95,6.97 -15.68,9.51 -5.58,2.49 -11.64,4.36 -18.15,5.6 -6.48,1.24 -13.37,1.86 -20.67,1.86 -5.36,0 -10.52,-0.47 -15.45,-1.42 -4.94,-0.95 -9.64,-2.37 -14.1,-4.27 -4.47,-1.9 -8.71,-4.29 -12.66,-7.14 -3.97,-2.86 -7.65,-6.18 -11.05,-9.95 -3.39,-3.76 -6.36,-7.9 -8.9,-12.42 -2.52,-4.48 -4.63,-9.36 -6.31,-14.6 -1.64,-5.12 -2.88,-10.58 -3.69,-16.35 -0.82,-5.77 -1.23,-11.85 -1.23,-18.22 0,-6.4 0.4,-12.51 1.21,-18.31 0.81,-5.81 2.02,-11.27 3.63,-16.34 1.64,-5.19 3.74,-10.06 6.26,-14.59 2.52,-4.51 5.48,-8.67 8.86,-12.45 3.39,-3.8 7.05,-7.11 10.95,-9.94 3.95,-2.84 8.17,-5.22 12.67,-7.13 4.46,-1.89 9.16,-3.31 14.11,-4.25 4.94,-0.94 10.09,-1.42 15.45,-1.42 4.37,0 8.58,0.24 12.61,0.72 4.02,0.47 7.87,1.2 11.52,2.16 3.75,0.99 7.29,2.23 10.6,3.72 3.33,1.5 6.46,3.26 9.33,5.26 2.97,2.07 5.64,4.37 7.99,6.87 2.35,2.51 4.37,5.23 6.06,8.17 1.28,2.23 2.36,4.55 3.23,6.94 0.58,1.61 1.08,3.27 1.5,4.98l8.3 0c-0.41,-1.52 -0.88,-3.01 -1.41,-4.45 -0.96,-2.62 -2.11,-5.09 -3.44,-7.39 -1.77,-3.07 -3.92,-5.99 -6.45,-8.74 -2.52,-2.74 -5.44,-5.31 -8.71,-7.69 -3.33,-2.44 -6.88,-4.56 -10.63,-6.37 -3.79,-1.83 -7.81,-3.36 -12.02,-4.58 -4.27,-1.23 -8.81,-2.16 -13.59,-2.79 -4.73,-0.61 -9.78,-0.92 -15.14,-0.92 -6.24,0 -12.11,0.5 -17.62,1.49 -5.48,0.99 -10.7,2.49 -15.62,4.48 -4.88,1.98 -9.45,4.44 -13.72,7.39 -4.27,2.95 -8.27,6.42 -12,10.39 -3.73,3.96 -6.99,8.27 -9.79,12.91 -2.81,4.66 -5.16,9.65 -7.02,14.96 -1.91,5.44 -3.34,11.21 -4.29,17.32 -0.95,6.11 -1.43,12.65 -1.43,19.6 0,6.91 0.48,13.42 1.45,19.51 0.97,6.1 2.42,11.86 4.35,17.28 1.9,5.33 4.27,10.33 7.1,14.96 2.84,4.64 6.14,8.96 9.91,12.92 3.77,3.97 7.83,7.45 12.16,10.41 4.33,2.97 8.94,5.45 13.82,7.42zm14.66 10.57c-5.99,-1.08 -11.65,-2.69 -16.95,-4.83 -5.32,-2.14 -10.32,-4.83 -15.01,-8.04 -4.7,-3.21 -9.08,-6.98 -13.15,-11.26 -4.07,-4.28 -7.65,-8.94 -10.71,-13.96 -3.06,-5.02 -5.62,-10.39 -7.65,-16.1 -2.04,-5.75 -3.59,-11.89 -4.62,-18.4 -1.03,-6.52 -1.54,-13.35 -1.54,-20.48 0,-7.16 0.51,-14.01 1.52,-20.54 1.02,-6.54 2.54,-12.69 4.56,-18.43 2.03,-5.75 4.55,-11.12 7.56,-16.11 3.03,-5.01 6.55,-9.66 10.59,-13.95 4,-4.26 8.34,-8.01 13,-11.23 4.67,-3.23 9.64,-5.92 14.9,-8.04 5.25,-2.13 10.88,-3.74 16.86,-4.81 5.97,-1.07 12.21,-1.61 18.71,-1.61 5.49,0 10.8,0.34 15.92,1 5.08,0.66 9.92,1.66 14.51,2.98 4.59,1.32 8.93,2.97 13.01,4.95 4.09,1.98 7.96,4.29 11.56,6.93 3.6,2.61 6.82,5.45 9.63,8.51 2.81,3.05 5.23,6.34 7.25,9.85 1.54,2.68 2.85,5.47 3.9,8.33 1.06,2.88 1.91,5.92 2.53,9.09l0.73 3.69 -21 0 -0.47 -2.54c-0.42,-2.25 -1.02,-4.43 -1.78,-6.53 -0.76,-2.1 -1.69,-4.09 -2.77,-5.97 -1.45,-2.51 -3.19,-4.87 -5.22,-7.03 -2.03,-2.17 -4.37,-4.18 -7,-6 -2.59,-1.79 -5.38,-3.36 -8.35,-4.7 -3.01,-1.35 -6.22,-2.48 -9.63,-3.38 -3.35,-0.88 -6.91,-1.55 -10.67,-1.99 -3.74,-0.44 -7.71,-0.67 -11.88,-0.67 -5.03,0 -9.8,0.43 -14.31,1.29 -4.52,0.86 -8.8,2.15 -12.85,3.87 -4.05,1.72 -7.87,3.87 -11.43,6.45 -3.6,2.61 -6.93,5.63 -9.98,9.04 -3.07,3.43 -5.76,7.22 -8.06,11.34 -2.29,4.11 -4.22,8.6 -5.76,13.45 -1.52,4.79 -2.66,9.9 -3.41,15.32 -0.75,5.44 -1.13,11.26 -1.13,17.46 0,6.13 0.39,11.92 1.16,17.34 0.77,5.45 1.92,10.56 3.45,15.33 1.55,4.82 3.5,9.32 5.83,13.47 2.32,4.12 5.02,7.89 8.1,11.31 3.12,3.47 6.48,6.5 10.06,9.08 3.57,2.58 7.4,4.74 11.48,6.47 4.05,1.72 8.34,3.02 12.84,3.88 4.51,0.86 9.27,1.3 14.29,1.3 6.96,0 13.46,-0.58 19.51,-1.73 6.02,-1.15 11.64,-2.88 16.83,-5.18 5.2,-2.3 9.97,-5.2 14.3,-8.67 4.29,-3.46 8.15,-7.51 11.55,-12.13 0.17,-0.23 0.29,-0.46 0.36,-0.67l0.13 -0.74 -0.01 -28.59c0,-0.65 -0.27,-1.25 -0.7,-1.67 -0.42,-0.43 -1.01,-0.7 -1.67,-0.7l-47.16 0 0 -17.65 68.88 0 0 91.05 -13.47 0 -6.02 -18.09c-0.22,-0.62 -0.65,-1.1 -1.17,-1.36 -0.53,-0.27 -1.18,-0.33 -1.8,-0.13 -0.22,0.07 -0.42,0.17 -0.58,0.28 -0.18,0.12 -0.34,0.26 -0.48,0.43 -3.07,3.68 -6.57,6.89 -10.5,9.63 -3.92,2.74 -8.3,5.03 -13.1,6.86 -4.86,1.85 -10.21,3.25 -16.05,4.18 -5.79,0.92 -12.01,1.39 -18.62,1.39 -6.53,0 -12.8,-0.54 -18.79,-1.62zm209.69 -84.62l-20.47 -53.93 -19.49 53.93 39.96 0zm-17.64 -63.92l26.61 70.12 -57.74 0 28.17 -77.92 2.96 7.81zm4.98 -17.61l32.88 86.62c0.22,0.5 0.4,1.04 0.53,1.63 0.14,0.6 0.21,1.22 0.21,1.85 0,2.36 -0.96,4.51 -2.51,6.05 -1.55,1.54 -3.69,2.51 -6.05,2.51l-64.61 -0.01c-0.46,-0.01 -0.93,-0.06 -1.39,-0.14 -0.46,-0.07 -0.94,-0.21 -1.43,-0.38 -2.22,-0.8 -3.91,-2.43 -4.83,-4.41 -0.92,-1.98 -1.1,-4.31 -0.31,-6.52l31.42 -86.95c0.4,-1.17 1.06,-2.26 1.95,-3.18 0.85,-0.89 1.92,-1.6 3.13,-2.06 2.21,-0.83 4.54,-0.69 6.53,0.21 2,0.9 3.65,2.57 4.47,4.78zm27.12 88.89l-32.91 -86.71c-0.22,-0.6 -0.68,-1.07 -1.23,-1.32 -0.55,-0.25 -1.2,-0.29 -1.81,-0.06 -0.34,0.13 -0.63,0.32 -0.85,0.55 -0.24,0.25 -0.43,0.57 -0.55,0.91l-31.46 87.03c-0.22,0.62 -0.17,1.27 0.08,1.81 0.25,0.54 0.72,0.99 1.34,1.21l0.8 0.16 64.53 -0.01c0.65,0 1.25,-0.27 1.67,-0.69 0.42,-0.42 0.69,-1.02 0.69,-1.67l-0.06 -0.53 -0.24 -0.68zm32.9 69.49l9.44 0 -69.6 -170.64 -15.17 0 -65.55 170.64 7.87 0 18.5 -51.02c0.53,-1.76 1.61,-3.29 3.02,-4.36 1.45,-1.1 3.24,-1.75 5.18,-1.75l78.64 0c1.74,0.01 3.45,0.56 4.86,1.53 1.37,0.95 2.5,2.32 3.13,3.99l19.67 51.62zm14.05 6.2l-18.31 0 -21.19 -55.61c-0.17,-0.47 -0.48,-0.85 -0.85,-1.11 -0.4,-0.27 -0.88,-0.43 -1.36,-0.43l-78.64 0.01c-0.54,0 -1.04,0.18 -1.44,0.48 -0.41,0.31 -0.71,0.75 -0.85,1.25 -5.59,17.99 -13.58,37.47 -20.08,55.41l-21.19 0 70.31 -183.03 23.56 0c24.81,61.04 49.77,122.02 74.66,183.03l-4.61 0zm169.39 -6.2l6.44 0 0 -170.64 -22.53 0 -49.17 150.59c-0.42,1.27 -1.13,2.45 -2.09,3.4 -0.91,0.92 -2.07,1.65 -3.39,2.08 -2.24,0.73 -4.58,0.48 -6.52,-0.51 -1.95,-0.99 -3.52,-2.74 -4.25,-4.98l-48.92 -150.59 -22.52 0 0 170.64 6.48 0 0 -151.13c0.03,-1.83 0.61,-3.59 1.64,-5.01 1.01,-1.39 2.46,-2.5 4.22,-3.09 2.24,-0.75 4.57,-0.53 6.52,0.44 1.95,0.97 3.54,2.7 4.28,4.94l51.55 153.84 10.03 0 51.39 -153.24c0.48,-1.87 1.56,-3.5 3.04,-4.65 1.46,-1.13 3.29,-1.81 5.26,-1.81 2.35,0 4.49,0.96 6.05,2.51 1.55,1.54 2.51,3.68 2.51,6.05l0 151.13zm9.54 6.2l-15.73 0 0 -157.33c0,-0.65 -0.27,-1.25 -0.69,-1.67 -0.42,-0.43 -1.01,-0.69 -1.67,-0.69 -0.56,0 -1.07,0.19 -1.46,0.49 -0.41,0.33 -0.72,0.79 -0.84,1.3 -17.09,52.71 -35.35,105.34 -52.95,157.91l-18.9 0 -52.97 -158.08c-0.2,-0.61 -0.65,-1.08 -1.19,-1.35 -0.54,-0.27 -1.19,-0.34 -1.8,-0.14 -0.48,0.16 -0.89,0.47 -1.16,0.85 -0.29,0.41 -0.46,0.9 -0.47,1.39l0.01 157.33 -18.87 0 0 -183.03 33.21 0 50.31 154.87c0.2,0.61 0.64,1.1 1.17,1.37 0.54,0.27 1.19,0.35 1.8,0.15 0.36,-0.12 0.67,-0.32 0.93,-0.57 0.27,-0.26 0.47,-0.59 0.59,-0.94l50.57 -154.87 33.21 0 0 183.03 -3.1 0zm21.9 -6.2l122.9 0 0 -5.17 -106.58 0c-2.36,0 -4.51,-0.96 -6.05,-2.51 -1.55,-1.56 -2.51,-3.7 -2.51,-6.05l0 -63.52c0,-2.35 0.96,-4.49 2.51,-6.04 1.56,-1.56 3.71,-2.52 6.05,-2.52l95.05 0 0 -5.17 -95.05 0c-2.36,0 -4.51,-0.96 -6.05,-2.51 -1.55,-1.56 -2.51,-3.7 -2.51,-6.05l0 -57.35c0,-2.35 0.96,-4.49 2.51,-6.04 1.56,-1.56 3.71,-2.52 6.05,-2.52l102.21 0 0 -5.17 -118.53 0 0 170.64zm126 6.2l-132.19 0 0 -183.03 130.92 0 0 17.56 -108.41 0c-0.66,0 -1.26,0.26 -1.67,0.68 -0.43,0.43 -0.69,1.02 -0.69,1.69l0 57.35c0,0.66 0.26,1.26 0.68,1.67 0.44,0.42 1.04,0.69 1.69,0.69l101.24 0 0 17.56 -101.24 0c-0.66,0 -1.26,0.26 -1.67,0.68 -0.43,0.43 -0.69,1.03 -0.69,1.69l0 63.52c0,0.66 0.26,1.26 0.68,1.67 0.44,0.42 1.04,0.69 1.69,0.69l112.78 0 0 17.56 -3.1 0z"/>
    <path class="fil2" d="M135.87 239.76c-26.97,0 -48.83,-8.83 -65.62,-26.49 -16.79,-17.66 -25.18,-41.23 -25.18,-70.56 0,-29.47 8.31,-53.03 24.87,-70.64 16.57,-17.66 38.3,-26.45 65.18,-26.45 22.6,0 41.45,5.42 56.4,16.3 14.99,10.89 23.39,25.49 25.18,43.76l-25.75 0c-1,-12.15 -6.47,-21.64 -16.39,-28.5 -9.88,-6.86 -22.95,-10.32 -39.17,-10.32 -19.41,0 -35.02,6.64 -46.82,19.85 -11.85,13.25 -17.75,31.91 -17.75,56 0,23.96 5.99,42.63 17.92,55.87 11.98,13.29 27.58,19.94 46.91,19.94 27.06,0 47.17,-8.92 60.29,-26.76l0 -28.59 -49.53 0 0 -22.38 73.62 0 0 95.78 -17.53 0 -6.56 -19.72c-12.72,15.26 -32.74,22.91 -60.07,22.91zm203.28 -80.04l-33.05 -87.09 -31.48 87.09 64.53 0zm57.14 76.85l-28.07 0 -21.77 -57.14 -78.64 0 -20.72 57.14 -26.27 0 72.13 -187.76 26.76 0 76.59 187.76zm176.26 0l-23.56 0 0 -159.7 -53.55 159.7 -22.3 0 -53.51 -159.7 0 159.7 -23.6 0 0 -187.76 37.29 0 50.84 156.51 51.11 -156.51 37.29 0 0 187.76zm147.89 0l-140.02 0 0 -187.76 135.65 0 0 22.29 -110.78 0 0 57.35 103.61 0 0 22.3 -103.61 0 0 63.52 115.15 0 0 22.3z"/>
    <path class="fil3" d="M383.52 284.41c0.99,-1.97 2.28,-4.46 3.84,-7.42 1.57,-2.96 3.2,-5.92 4.87,-8.92 1.7,-3 3.37,-5.82 5,-8.47 1.63,-2.66 2.99,-4.7 4.15,-6.09 1.91,-2.31 3.91,-3.98 5.95,-4.97 2.08,-1.02 3.98,-1.5 5.68,-1.5 1.74,0 3.23,0.34 4.46,1.09 1.23,0.72 2.25,1.7 3.03,2.93 0.78,1.23 1.4,2.65 1.8,4.29 0.37,1.63 0.58,3.37 0.58,5.24 0,1.05 -0.04,2.45 -0.13,4.18 -0.1,1.73 -0.21,3.61 -0.31,5.58 -0.1,2.01 -0.2,4.05 -0.31,6.19 -0.1,2.11 -0.17,4.12 -0.23,5.99 0.99,-2.01 2.14,-4.22 3.4,-6.64 1.26,-2.45 2.52,-4.83 3.81,-7.25 1.33,-2.38 2.55,-4.63 3.74,-6.7 1.19,-2.11 2.32,-3.81 3.3,-5.14 2.86,-3.95 5.55,-6.57 8.03,-7.9 2.48,-1.32 4.7,-1.97 6.64,-1.97 2.24,0 4.12,0.41 5.58,1.23 1.46,0.85 2.59,1.9 3.43,3.2 0.82,1.29 1.4,2.75 1.73,4.35 0.34,1.56 0.51,3.1 0.51,4.56 0,2.28 -0.17,4.63 -0.51,7.08 -0.34,2.49 -0.51,5.38 -0.51,8.78 0,1.4 0.07,2.79 0.21,4.19 0.13,1.39 0.41,2.62 0.85,3.71 0.44,1.06 1.12,1.91 2.04,2.59 0.95,0.65 2.21,0.99 3.81,0.99 1.7,0 3.4,-0.44 5.07,-1.36 1.67,-0.88 3.27,-2.07 4.8,-3.54 1.53,-1.46 2.96,-3.1 4.32,-4.97 1.36,-1.87 2.62,-3.71 3.74,-5.58 1.12,-1.87 2.11,-3.64 3,-5.34 0.85,-1.7 1.56,-3.13 2.07,-4.32 0.34,-0.75 0.82,-1.29 1.4,-1.7 0.16,-0.1 0.32,-0.2 0.48,-0.28 1.59,-3.03 3.49,-5.62 5.71,-7.79 2.72,-2.69 5.71,-4.66 9.01,-5.99 3.3,-1.33 6.46,-2.01 9.53,-2.01 2.04,0 3.94,0.31 5.68,0.85 1.73,0.58 3.2,1.19 4.42,1.84 1.22,0.68 2.18,1.29 2.86,1.87 0.65,0.55 1.02,0.85 1.09,0.92 0.72,0.89 1.09,1.77 1.09,2.69 0,1.02 -0.38,1.91 -1.09,2.66 -0.71,0.78 -1.6,1.16 -2.58,1.16 -1.05,0 -1.98,-0.37 -2.69,-1.09 -0.14,-0.14 -0.44,-0.41 -0.92,-0.75 -0.44,-0.38 -1.09,-0.75 -1.87,-1.16 -0.82,-0.41 -1.77,-0.75 -2.86,-1.05 -1.09,-0.31 -2.35,-0.44 -3.74,-0.44 -2.04,0 -4.25,0.48 -6.57,1.39 -2.31,0.92 -4.46,2.38 -6.4,4.32 -1.9,1.98 -3.54,4.43 -4.83,7.38 -1.29,2.96 -1.94,6.47 -1.94,10.51 0,1.26 0.13,2.55 0.41,3.85 0.27,1.29 0.71,2.48 1.4,3.54 0.68,1.05 1.56,1.94 2.69,2.59 1.12,0.68 2.52,1.02 4.18,1.02 1.19,0 2.59,-0.41 4.15,-1.23 1.57,-0.78 3.06,-2 4.49,-3.67 1.43,-1.66 2.72,-3.74 3.88,-6.29 1.16,-2.52 1.97,-5.51 2.45,-8.95 0.13,-0.95 0.55,-1.73 1.29,-2.35 0.72,-0.65 1.6,-0.95 2.59,-0.95 0.92,0 1.73,0.38 2.45,1.09 0.68,0.75 1.05,1.56 1.12,2.52 0.07,1.26 0.2,3.03 0.41,5.31 0.21,2.31 0.65,4.59 1.36,6.84 0.68,2.24 1.73,4.22 3.13,5.88 1.39,1.67 3.33,2.49 5.78,2.49 1.6,0 3.16,-0.44 4.73,-1.29 1.57,-0.85 3.1,-2.01 4.6,-3.43 1.5,-1.43 2.93,-3.06 4.29,-4.9 1.36,-1.8 2.58,-3.67 3.74,-5.51 1.12,-1.87 2.11,-3.67 2.96,-5.38 0.88,-1.74 1.6,-3.23 2.21,-4.49 3,-7.11 5.82,-12.35 8.44,-15.72 2.62,-3.33 5.24,-5.04 7.82,-5.04 1.53,0 2.83,0.41 3.88,1.16 1.06,0.75 1.9,1.77 2.55,3.03 0.65,1.26 1.09,2.69 1.39,4.18 0.31,1.53 0.44,3.1 0.44,4.7 0,1.19 -0.07,3.06 -0.24,5.58 -0.17,2.52 -0.38,5.24 -0.65,8.13 -0.27,2.89 -0.51,5.75 -0.75,8.61 -0.24,2.86 -0.45,5.28 -0.65,7.18 1.06,-2.18 2.28,-4.59 3.67,-7.21 1.39,-2.62 2.89,-5.27 4.49,-7.96 1.6,-2.72 3.27,-5.38 5.04,-8.03 1.77,-2.65 3.6,-5.2 5.54,-7.59 1.91,-2.31 3.85,-4.01 5.82,-5.04 1.98,-1.02 3.81,-1.53 5.55,-1.53 3.44,0 5.99,1.26 7.66,3.78 1.67,2.52 2.48,5.65 2.48,9.36 0,0.89 -0.04,1.94 -0.13,3.16 -0.1,1.23 -0.21,2.52 -0.31,3.91 -0.1,1.39 -0.2,2.82 -0.31,4.25 -0.1,1.43 -0.13,2.76 -0.13,4.05 0,1.56 0.07,3.1 0.24,4.56 0.17,1.46 0.48,2.76 0.95,3.84 0.48,1.09 1.12,1.97 2.01,2.59 0.85,0.65 1.98,0.95 3.37,0.95 2.55,0 5,-0.99 7.38,-2.93 2.38,-1.98 4.6,-4.29 6.64,-6.98 2.04,-2.69 3.78,-5.44 5.28,-8.23 1.49,-2.79 2.62,-5.07 3.33,-6.77 0.14,-0.32 0.31,-0.6 0.51,-0.85 0.3,-5.62 0.79,-11.22 1.49,-16.81 0.14,-0.92 0.55,-1.73 1.26,-2.45 0.68,-0.68 1.6,-1.02 2.72,-1.02 0.99,0 1.83,0.37 2.48,1.12 0.68,0.78 1.02,1.67 1.02,2.66 0,0.41 -0.1,1.6 -0.27,3.57 -0.13,2.01 -0.34,4.39 -0.58,7.15 -0.24,2.76 -0.44,5.68 -0.61,8.78 -0.17,3.1 -0.24,5.92 -0.24,8.5 0,3.54 0.34,6.37 1.06,8.54 0.68,2.15 1.6,3.81 2.68,5.04 1.09,1.19 2.25,1.98 3.47,2.38 1.23,0.41 2.42,0.61 3.54,0.61 1.87,0 3.81,-0.68 5.78,-2.01 2.01,-1.33 4.05,-3.2 6.12,-5.58 2.11,-2.38 4.22,-5.27 6.36,-8.64 2.11,-3.33 4.22,-7.08 6.26,-11.19 0.34,-0.68 0.82,-1.19 1.39,-1.57l0.37 -0.19c1.59,-3.03 3.5,-5.64 5.72,-7.81 2.72,-2.69 5.72,-4.66 9.02,-5.99 3.3,-1.33 6.46,-2.01 9.53,-2.01 2.04,0 3.95,0.31 5.68,0.85 1.73,0.58 3.2,1.19 4.42,1.84 1.22,0.68 2.18,1.29 2.86,1.87 0.65,0.55 1.02,0.85 1.09,0.92 0.72,0.89 1.09,1.77 1.09,2.69 0,1.02 -0.38,1.91 -1.09,2.66 -0.71,0.78 -1.6,1.16 -2.58,1.16 -1.06,0 -1.98,-0.37 -2.69,-1.09 -0.14,-0.14 -0.45,-0.41 -0.92,-0.75 -0.44,-0.38 -1.09,-0.75 -1.87,-1.16 -0.82,-0.41 -1.77,-0.75 -2.86,-1.05 -1.09,-0.31 -2.35,-0.44 -3.74,-0.44 -2.04,0 -4.25,0.48 -6.57,1.39 -2.31,0.92 -4.45,2.38 -6.39,4.32 -1.91,1.98 -3.54,4.43 -4.83,7.38 -1.29,2.96 -1.94,6.47 -1.94,10.51 0,1.26 0.13,2.55 0.41,3.85 0.27,1.29 0.71,2.48 1.39,3.54 0.68,1.05 1.56,1.94 2.69,2.59 1.12,0.68 2.52,1.02 4.18,1.02 1.19,0 2.59,-0.41 4.15,-1.23 1.57,-0.78 3.06,-2 4.49,-3.67 1.43,-1.66 2.72,-3.74 3.88,-6.29 1.16,-2.52 1.97,-5.51 2.45,-8.95 0.14,-0.95 0.55,-1.73 1.29,-2.35 0.72,-0.65 1.6,-0.95 2.59,-0.95 0.92,0 1.73,0.38 2.45,1.09 0.68,0.75 1.06,1.56 1.12,2.52 0.07,1.26 0.2,3.03 0.41,5.31 0.2,2.31 0.65,4.59 1.36,6.84 0.68,2.24 1.73,4.22 3.13,5.88 1.4,1.67 3.34,2.49 5.78,2.49 1.6,0 3.17,-0.44 4.73,-1.29 1.57,-0.85 3.1,-2.01 4.59,-3.43 1.5,-1.43 2.93,-3.06 4.29,-4.9 1.36,-1.8 2.58,-3.67 3.74,-5.51 1.12,-1.87 2.11,-3.67 2.96,-5.38 0.89,-1.74 1.6,-3.23 2.21,-4.49 0.34,-0.75 0.82,-1.29 1.43,-1.7 0.65,-0.41 1.33,-0.61 2.04,-0.61 1.16,0 2.04,0.44 2.76,1.26 0.72,0.82 1.05,1.7 1.05,2.66 0,0.44 -0.1,0.92 -0.31,1.39 -0.27,0.51 -0.82,1.63 -1.63,3.33 -0.85,1.7 -1.9,3.64 -3.2,5.82 -1.29,2.21 -2.83,4.49 -4.53,6.87 -1.73,2.42 -3.67,4.6 -5.78,6.6 -2.15,1.98 -4.42,3.64 -6.87,4.94 -2.48,1.29 -5.07,1.94 -7.79,1.94 -3.84,0 -7.08,-1.23 -9.73,-3.71 -2.62,-2.45 -4.53,-5.55 -5.71,-9.25 -2.25,3.77 -4.97,6.8 -8.07,9.01 -3.13,2.25 -6.26,3.34 -9.39,3.34 -2.45,0 -4.7,-0.44 -6.67,-1.33 -2.01,-0.92 -3.67,-2.18 -5.07,-3.81 -1.4,-1.6 -2.49,-3.54 -3.27,-5.72 -0.4,-1.18 -0.69,-2.4 -0.87,-3.68 -1.19,1.71 -2.46,3.42 -3.82,5.11 -1.8,2.31 -3.74,4.35 -5.82,6.19 -2.07,1.83 -4.22,3.3 -6.46,4.42 -2.28,1.16 -4.56,1.7 -6.91,1.7 -2.96,0 -5.61,-0.62 -7.86,-1.9 -2.24,-1.26 -4.18,-2.93 -5.72,-5.07 -1.56,-2.11 -2.76,-4.63 -3.5,-7.52 -0.44,-1.71 -0.76,-3.48 -0.95,-5.34 -0.83,1.27 -1.72,2.59 -2.69,3.94 -1.74,2.42 -3.64,4.62 -5.72,6.64 -2.11,1.97 -4.35,3.64 -6.81,4.97 -2.42,1.33 -4.97,2.01 -7.62,2.01 -3,0 -5.41,-0.58 -7.28,-1.77 -1.84,-1.16 -3.3,-2.69 -4.39,-4.56 -1.05,-1.9 -1.77,-3.98 -2.15,-6.29 -0.34,-2.28 -0.54,-4.59 -0.54,-6.9 0,-1.02 0.07,-2.15 0.17,-3.4 0.1,-1.26 0.24,-2.59 0.37,-3.98 0.17,-1.4 0.31,-2.79 0.41,-4.18 0.1,-1.4 0.17,-2.72 0.17,-3.98 0,-2.15 -0.34,-3.57 -1.02,-4.35 -0.65,-0.75 -1.26,-1.16 -1.77,-1.16 -1.09,0 -2.28,0.61 -3.64,1.87 -1.36,1.23 -2.79,2.83 -4.28,4.83 -1.5,1.98 -3.03,4.22 -4.6,6.71 -1.56,2.52 -3.03,4.97 -4.39,7.45 -1.36,2.45 -2.62,4.8 -3.78,7.01 -1.19,2.25 -2.08,4.09 -2.76,5.55 -1.33,2.79 -2.66,4.66 -3.98,5.61 -1.33,0.99 -2.69,1.46 -4.08,1.46 -1.94,0 -3.47,-0.58 -4.66,-1.74 -1.16,-1.19 -1.73,-2.82 -1.73,-4.93 0,-0.48 0.07,-1.4 0.2,-2.76 0.14,-1.36 0.31,-2.99 0.51,-4.9 0.2,-1.87 0.37,-3.91 0.58,-6.13 0.2,-2.18 0.41,-4.35 0.61,-6.53 0.21,-2.15 0.38,-4.15 0.51,-6.02 0.1,-1.87 0.17,-3.4 0.17,-4.7 0,-1.63 -0.07,-3.23 -0.17,-4.76 -0.13,-1.53 -0.41,-2.45 -0.82,-2.79 -0.58,0.21 -1.67,1.43 -3.2,3.74 -1.53,2.28 -3.47,6.33 -5.85,12.11 -0.09,0.2 -0.2,0.38 -0.31,0.56l-1.35 2.78c-0.85,1.7 -1.91,3.64 -3.2,5.82 -1.29,2.21 -2.82,4.49 -4.53,6.87 -1.73,2.42 -3.67,4.6 -5.78,6.6 -2.15,1.98 -4.43,3.64 -6.88,4.94 -2.48,1.29 -5.07,1.94 -7.79,1.94 -3.84,0 -7.08,-1.23 -9.73,-3.71 -2.62,-2.45 -4.53,-5.55 -5.72,-9.25 -2.25,3.77 -4.97,6.8 -8.07,9.01 -3.13,2.25 -6.26,3.34 -9.39,3.34 -2.45,0 -4.7,-0.44 -6.67,-1.33 -2.01,-0.92 -3.67,-2.18 -5.07,-3.81 -1.4,-1.6 -2.49,-3.54 -3.27,-5.72 -0.38,-1.13 -0.66,-2.3 -0.85,-3.52l-1.02 1.42c-1.77,2.42 -3.71,4.62 -5.85,6.64 -2.11,2.04 -4.43,3.71 -6.87,5 -2.45,1.29 -5.04,1.94 -7.76,1.94 -2.93,0 -5.31,-0.51 -7.14,-1.56 -1.84,-1.02 -3.3,-2.39 -4.39,-4.12 -1.09,-1.73 -1.84,-3.74 -2.24,-5.99 -0.38,-2.24 -0.58,-4.62 -0.58,-7.08 0,-3.27 0.17,-6.26 0.48,-9.01 0.34,-2.76 0.51,-4.9 0.51,-6.43 0,-1.67 -0.13,-2.92 -0.44,-3.78 -0.31,-0.88 -0.68,-1.49 -1.09,-1.87 -0.44,-0.34 -0.85,-0.55 -1.26,-0.58 -0.41,-0.04 -0.72,-0.07 -0.89,-0.07 -1.6,0 -3.3,0.89 -5.04,2.66 -1.77,1.77 -3.57,4.11 -5.44,7.04 -1.87,2.89 -3.78,6.23 -5.75,9.93 -1.94,3.74 -3.91,7.52 -5.92,11.37 -1.12,2.15 -2.07,3.91 -2.83,5.31 -0.78,1.4 -1.5,2.49 -2.21,3.27 -0.68,0.82 -1.36,1.36 -2.04,1.7 -0.65,0.34 -1.39,0.51 -2.18,0.51 -1.73,0 -3.06,-0.61 -3.95,-1.8 -0.88,-1.19 -1.36,-2.76 -1.36,-4.7 0,-0.99 0.04,-2.32 0.1,-3.98 0.07,-1.67 0.14,-3.47 0.21,-5.48 0.07,-1.98 0.17,-4.05 0.31,-6.2 0.13,-2.11 0.24,-4.15 0.31,-6.12 0.07,-1.94 0.14,-3.71 0.21,-5.21 0.07,-1.53 0.1,-2.72 0.1,-3.5 0,-1.73 -0.31,-2.96 -0.92,-3.74 -0.58,-0.75 -1.29,-1.16 -2.08,-1.16 -0.75,0 -1.56,0.27 -2.45,0.82 -0.89,0.51 -1.94,1.56 -3.13,3.1 -0.95,1.19 -2.11,2.93 -3.54,5.21 -1.43,2.31 -2.96,4.87 -4.56,7.66 -1.56,2.79 -3.16,5.65 -4.73,8.57 -1.56,2.89 -2.89,5.55 -4.01,7.86 -1.4,2.79 -2.82,4.7 -4.22,5.71 -1.39,1.06 -2.76,1.57 -4.09,1.57 -1.9,0 -3.33,-0.58 -4.28,-1.74 -0.92,-1.19 -1.39,-2.72 -1.39,-4.66 0,-0.2 0.06,-1.39 0.17,-3.57 0.1,-2.21 0.2,-4.87 0.34,-8.03 0.13,-3.16 0.27,-6.53 0.44,-10.1 0.17,-3.61 0.34,-6.94 0.44,-10.07 0.07,-1.67 0,-3.2 -0.17,-4.59 -0.21,-1.39 -0.48,-2.21 -0.82,-2.49 -0.51,0.14 -1.57,1.36 -3.13,3.67 -1.56,2.35 -3.54,6.4 -5.92,12.18 -0.34,0.72 -0.85,1.29 -1.5,1.67 -0.68,0.41 -1.36,0.61 -2.11,0.61 -1.12,0 -2.04,-0.37 -2.69,-1.16 -0.68,-0.75 -0.99,-1.63 -0.99,-2.62 0,-0.48 0.1,-0.99 0.27,-1.5 2.99,-7.11 5.85,-12.35 8.57,-15.72 2.72,-3.33 5.41,-5.04 8,-5.04 1.53,0 2.79,0.38 3.84,1.06 1.02,0.71 1.84,1.6 2.42,2.69 0.61,1.09 1.05,2.35 1.29,3.74 0.27,1.39 0.41,2.76 0.41,4.08 0,5.92 -0.14,11.33 -0.44,16.26 -0.31,4.9 -0.61,9.87 -0.95,14.84z"/>
    <path class="fil4" d="M661.58 196.11c0,-1.04 -0.38,-1.97 -1.19,-2.77 -0.77,-0.77 -1.7,-1.16 -2.77,-1.16 -1.04,0 -1.96,0.39 -2.69,1.16 -0.77,0.81 -1.11,1.73 -1.11,2.77 0,1.08 0.35,1.96 1.11,2.69 0.73,0.77 1.65,1.16 2.69,1.16 1.08,0 2,-0.39 2.77,-1.16 0.81,-0.73 1.19,-1.62 1.19,-2.69zm6.31 0c0,2.85 -1,5.27 -3,7.27 -2,2 -4.39,3 -7.27,3 -2.85,0 -5.27,-1 -7.27,-3 -1.96,-2 -2.96,-4.43 -2.96,-7.27 0,-1.43 0.27,-2.77 0.77,-4 0.54,-1.23 1.27,-2.31 2.19,-3.27 0.96,-0.92 2.04,-1.65 3.27,-2.19 1.27,-0.54 2.58,-0.77 4,-0.77 1.42,0 2.77,0.23 4,0.77 1.27,0.54 2.35,1.27 3.27,2.19 0.96,0.96 1.69,2.04 2.19,3.27 0.54,1.23 0.81,2.58 0.81,4z"/>
    <g>
     <path class="fil5" d="M311.24 194.55c-4.43,-3.52 -16.2,-2.49 -18.19,2.77 -0.73,1.92 -1.02,5.71 -1.02,5.71l-25.19 8.31 -25.05 8.76c0,0 -2.54,-2.82 -4.29,-3.91 -4.78,-2.96 -14.74,3.39 -16.11,8.88 -1.37,5.49 -20.9,91.53 2.9,92.6 23.8,1.07 25.07,-34.7 33.98,-45.22 7.69,-9.08 24.24,-14.97 24.24,-14.97 0,0 16.71,-5.41 28.34,-2.89 13.49,2.92 36.28,30.51 54.5,15.16 18.23,-15.35 -49.68,-71.68 -54.11,-75.2z"/>
     <polygon class="fil6" points="266.18,241.01 259.75,243.19 257.56,236.76 249.34,239.55 251.52,245.99 245.09,248.17 247.89,256.41 254.32,254.22 256.5,260.65 264.73,257.85 262.55,251.42 268.98,249.24 "/>
     <path class="fil6" d="M255.92 262.09l10.1 -3.43 -2.08 -6.21c-0.08,-0.22 0.04,-0.46 0.26,-0.54l5.97 -2.03 -3.43 -10.1 -5.97 2.03c-0.22,0.07 -0.47,-0.04 -0.54,-0.27l-2.05 -6.02 -10.1 3.43 2.04 6.02c0.08,0.22 -0.04,0.46 -0.26,0.54l-6.02 2.04 3.43 10.1 6.02 -2.05c0.11,-0.04 0.22,-0.03 0.33,0.02 0.1,0.05 0.18,0.14 0.21,0.24l2.09 6.21zm10.77 -2.76l-10.91 3.71c-0.11,0.04 -0.22,0.03 -0.32,-0.02 -0.1,-0.05 -0.18,-0.14 -0.22,-0.24l-2.08 -6.21 -6.02 2.05c-0.22,0.07 -0.46,-0.04 -0.54,-0.27l-3.71 -10.91c-0.07,-0.22 0.04,-0.46 0.27,-0.54l6.02 -2.04 -2.04 -6.02c-0.08,-0.22 0.04,-0.46 0.26,-0.54l10.91 -3.7c0.22,-0.08 0.47,0.04 0.54,0.26l2.05 6.02 5.97 -2.03c0.22,-0.07 0.47,0.04 0.54,0.27l3.71 10.91c0.07,0.22 -0.04,0.46 -0.27,0.54l-5.97 2.03 2.09 6.22c0.07,0.22 -0.04,0.46 -0.27,0.54z"/>
     <path class="fil6" d="M231.67 227.78c-4.07,1.38 -6.26,5.83 -4.88,9.9 1.38,4.08 5.82,6.26 9.9,4.88 4.07,-1.38 6.26,-5.83 4.88,-9.9 -1.38,-4.07 -5.82,-6.26 -9.9,-4.88zm5.3 15.58c-4.52,1.53 -9.44,-0.89 -10.98,-5.41 -1.54,-4.52 0.89,-9.44 5.41,-10.97 4.52,-1.54 9.44,0.89 10.98,5.41 1.54,4.52 -0.89,9.44 -5.41,10.98z"/>
     <path class="fil6" d="M232.21 228.89c-3.32,1.13 -5.1,4.75 -3.98,8.07 1.13,3.32 4.75,5.1 8.06,3.97 3.32,-1.13 5.1,-4.74 3.98,-8.06 -1.13,-3.32 -4.75,-5.1 -8.06,-3.98zm4.25 12.5c-3.57,1.21 -7.47,-0.71 -8.68,-4.28 -1.21,-3.57 0.71,-7.47 4.28,-8.68 3.57,-1.21 7.47,0.71 8.68,4.28 1.21,3.57 -0.7,7.47 -4.28,8.68z"/>
     <path class="fil6" d="M238.06 233.62c0.72,2.1 -0.41,4.38 -2.51,5.1 -2.1,0.72 -4.38,-0.41 -5.1,-2.51 -0.71,-2.1 0.41,-4.38 2.51,-5.1 2.1,-0.71 4.38,0.41 5.1,2.51z"/>
     <path class="fil6" d="M301.25 237.12c1.34,3.93 -0.77,8.2 -4.7,9.54 -3.93,1.34 -8.2,-0.77 -9.54,-4.7 -1.34,-3.93 0.77,-8.2 4.7,-9.54 3.93,-1.34 8.2,0.77 9.54,4.7z"/>
     <path class="fil6" d="M291.26 231.07c-4.67,1.59 -7.18,6.68 -5.59,11.35 1.59,4.67 6.68,7.18 11.35,5.59 4.67,-1.59 7.18,-6.68 5.59,-11.35 -1.59,-4.67 -6.68,-7.18 -11.35,-5.59zm6.1 17.96c-5.23,1.78 -10.93,-1.03 -12.71,-6.26 -1.78,-5.23 1.03,-10.93 6.26,-12.71 5.23,-1.78 10.93,1.03 12.71,6.26 1.78,5.23 -1.03,10.93 -6.26,12.71z"/>
     <path class="fil6" d="M306.81 204.93c0.81,2.4 -0.47,5 -2.87,5.82 -2.4,0.81 -5,-0.47 -5.82,-2.87 -0.81,-2.4 0.47,-5 2.87,-5.82 2.4,-0.81 5,0.47 5.82,2.87z"/>
     <path class="fil6" d="M312.64 222.1c0.82,2.4 -0.47,5 -2.86,5.82 -2.4,0.81 -5,-0.47 -5.82,-2.87 -0.82,-2.4 0.47,-5 2.86,-5.82 2.4,-0.81 5,0.47 5.82,2.87z"/>
     <path class="fil6" d="M295.35 213.66c2.4,-0.82 5,0.47 5.82,2.86 0.82,2.4 -0.47,5 -2.86,5.82 -2.4,0.82 -5,-0.47 -5.82,-2.86 -0.82,-2.4 0.47,-5 2.86,-5.82z"/>
     <path class="fil6" d="M312.52 207.83c2.4,-0.82 5,0.47 5.82,2.86 0.82,2.4 -0.47,5 -2.86,5.82 -2.4,0.81 -5,-0.47 -5.82,-2.86 -0.82,-2.4 0.47,-5 2.86,-5.82z"/>
     <path class="fil6" d="M287.28 212.01l-8.49 2.88c-0.89,0.3 -1.86,-0.17 -2.16,-1.07l0 0c-0.3,-0.89 0.17,-1.86 1.07,-2.16l8.48 -2.88c0.89,-0.31 1.86,0.17 2.16,1.06l0 0c0.3,0.89 -0.17,1.86 -1.07,2.16z"/>
     <path class="fil6" d="M260.65 221.06l-8.49 2.88c-0.89,0.31 -1.86,-0.17 -2.16,-1.06l0 0c-0.3,-0.89 0.17,-1.86 1.07,-2.16l8.49 -2.88c0.89,-0.3 1.86,0.17 2.16,1.07l0 0c0.3,0.89 -0.18,1.86 -1.07,2.16z"/>
     <path class="fil6" d="M237.37 306.52l-20.59 -5.8c-0.38,-0.11 -0.6,-0.5 -0.49,-0.88l0 0c0.11,-0.38 0.5,-0.6 0.88,-0.49l20.59 5.8c0.38,0.11 0.6,0.5 0.49,0.88l0 0c-0.11,0.38 -0.5,0.6 -0.88,0.49z"/>
     <path class="fil6" d="M238.52 302.47l-20.59 -5.8c-0.38,-0.11 -0.6,-0.5 -0.49,-0.88l0 0c0.11,-0.38 0.5,-0.6 0.88,-0.5l20.59 5.8c0.38,0.11 0.6,0.5 0.49,0.88l0 0c-0.11,0.38 -0.5,0.6 -0.88,0.49z"/>
     <path class="fil6" d="M239.7 298.26l-20.59 -5.8c-0.38,-0.11 -0.6,-0.5 -0.49,-0.88l0 0c0.11,-0.38 0.5,-0.6 0.88,-0.49l20.59 5.8c0.38,0.11 0.6,0.5 0.49,0.88l0 0c-0.11,0.38 -0.5,0.6 -0.88,0.49z"/>
     <path class="fil6" d="M240.87 294.12l-20.59 -5.8c-0.38,-0.11 -0.6,-0.5 -0.49,-0.88l0 0c0.11,-0.38 0.5,-0.6 0.88,-0.49l20.59 5.8c0.38,0.11 0.6,0.5 0.49,0.88l0 0c-0.11,0.38 -0.5,0.6 -0.88,0.49z"/>
     <path class="fil6" d="M242.08 289.83l-20.59 -5.8c-0.38,-0.11 -0.6,-0.5 -0.49,-0.88l0 0c0.11,-0.38 0.5,-0.6 0.88,-0.49l20.59 5.8c0.38,0.11 0.6,0.5 0.49,0.88l0 0c-0.11,0.38 -0.5,0.6 -0.88,0.49z"/>
     <path class="fil6" d="M347.78 269.08l12.79 -17.14c0.23,-0.31 0.17,-0.76 -0.15,-1l0 0c-0.31,-0.24 -0.76,-0.17 -1,0.14l-12.79 17.14c-0.23,0.32 -0.17,0.76 0.14,1l0 0c0.32,0.23 0.76,0.17 1,-0.15z"/>
     <path class="fil6" d="M344.4 266.57l12.79 -17.14c0.24,-0.32 0.17,-0.76 -0.14,-1l0 0c-0.31,-0.24 -0.76,-0.17 -1,0.14l-12.79 17.14c-0.24,0.31 -0.17,0.76 0.14,1l0 0c0.31,0.24 0.76,0.17 1,-0.14z"/>
     <path class="fil6" d="M340.9 263.95l12.79 -17.14c0.24,-0.31 0.17,-0.76 -0.14,-1l0 0c-0.31,-0.23 -0.76,-0.17 -1,0.14l-12.79 17.14c-0.24,0.32 -0.17,0.76 0.14,1l0 0c0.31,0.23 0.76,0.17 1,-0.14z"/>
     <path class="fil6" d="M337.45 261.38l12.79 -17.14c0.23,-0.31 0.17,-0.76 -0.14,-1l0 0c-0.32,-0.23 -0.76,-0.17 -1,0.14l-12.79 17.14c-0.23,0.31 -0.17,0.76 0.15,1l0 0c0.31,0.23 0.76,0.17 1,-0.15z"/>
     <path class="fil6" d="M333.88 258.71l12.79 -17.14c0.24,-0.32 0.17,-0.76 -0.14,-1l0 0c-0.31,-0.24 -0.76,-0.17 -1,0.14l-12.79 17.14c-0.24,0.31 -0.17,0.76 0.14,1l0 0c0.31,0.23 0.76,0.17 1,-0.14z"/>
    </g>
   </g>
   <rect class="fil7" x="-0" y="0" width="815.73" height="345.59"/>
  </g>
 </g>
</svg>
